<svg aria-roledescription="er" viewBox="0 0 469.83203125 320" style="max-width: 469.832px; background-color: white;" xmlns:xlink="http://www.w3.org/1999/xlink" xmlns="http://www.w3.org/2000/svg" width="100%" id="mermaid-0"><style>#mermaid-0{font-family:"trebuchet ms",verdana,arial,sans-serif;font-size:16px;fill:#000000;}#mermaid-0 .error-icon{fill:#552222;}#mermaid-0 .error-text{fill:#552222;stroke:#552222;}#mermaid-0 .edge-thickness-normal{stroke-width:2px;}#mermaid-0 .edge-thickness-thick{stroke-width:3.5px;}#mermaid-0 .edge-pattern-solid{stroke-dasharray:0;}#mermaid-0 .edge-pattern-dashed{stroke-dasharray:3;}#mermaid-0 .edge-pattern-dotted{stroke-dasharray:2;}#mermaid-0 .marker{fill:#000000;stroke:#000000;}#mermaid-0 .marker.cross{stroke:#000000;}#mermaid-0 svg{font-family:"trebuchet ms",verdana,arial,sans-serif;font-size:16px;}#mermaid-0 .entityBox{fill:#cde498;stroke:#13540c;}#mermaid-0 .attributeBoxOdd{fill:#ffffff;stroke:#13540c;}#mermaid-0 .attributeBoxEven{fill:#f2f2f2;stroke:#13540c;}#mermaid-0 .relationshipLabelBox{fill:hsl(78.1578947368, 58.4615384615%, 84.5098039216%);opacity:0.7;background-color:hsl(78.1578947368, 58.4615384615%, 84.5098039216%);}#mermaid-0 .relationshipLabelBox rect{opacity:0.5;}#mermaid-0 .relationshipLine{stroke:#000000;}#mermaid-0 .entityTitleText{text-anchor:middle;font-size:18px;fill:#000000;}#mermaid-0 :root{--mermaid-font-family:"trebuchet ms",verdana,arial,sans-serif;}</style><g/><defs><marker orient="auto" markerHeight="18" markerWidth="18" refY="9" refX="0" id="ONLY_ONE_START"><path d="M9,0 L9,18 M15,0 L15,18" fill="none" stroke="gray"/></marker></defs><defs><marker orient="auto" markerHeight="18" markerWidth="18" refY="9" refX="18" id="ONLY_ONE_END"><path d="M3,0 L3,18 M9,0 L9,18" fill="none" stroke="gray"/></marker></defs><defs><marker orient="auto" markerHeight="18" markerWidth="30" refY="9" refX="0" id="ZERO_OR_ONE_START"><circle r="6" cy="9" cx="21" fill="white" stroke="gray"/><path d="M9,0 L9,18" fill="none" stroke="gray"/></marker></defs><defs><marker orient="auto" markerHeight="18" markerWidth="30" refY="9" refX="30" id="ZERO_OR_ONE_END"><circle r="6" cy="9" cx="9" fill="white" stroke="gray"/><path d="M21,0 L21,18" fill="none" stroke="gray"/></marker></defs><defs><marker orient="auto" markerHeight="36" markerWidth="45" refY="18" refX="18" id="ONE_OR_MORE_START"><path d="M0,18 Q 18,0 36,18 Q 18,36 0,18 M42,9 L42,27" fill="none" stroke="gray"/></marker></defs><defs><marker orient="auto" markerHeight="36" markerWidth="45" refY="18" refX="27" id="ONE_OR_MORE_END"><path d="M3,9 L3,27 M9,18 Q27,0 45,18 Q27,36 9,18" fill="none" stroke="gray"/></marker></defs><defs><marker orient="auto" markerHeight="36" markerWidth="57" refY="18" refX="18" id="ZERO_OR_MORE_START"><circle r="6" cy="18" cx="48" fill="white" stroke="gray"/><path d="M0,18 Q18,0 36,18 Q18,36 0,18" fill="none" stroke="gray"/></marker></defs><defs><marker orient="auto" markerHeight="36" markerWidth="57" refY="18" refX="39" id="ZERO_OR_MORE_END"><circle r="6" cy="18" cx="9" fill="white" stroke="gray"/><path d="M21,18 Q39,0 57,18 Q39,36 21,18" fill="none" stroke="gray"/></marker></defs><path style="stroke: gray; fill: none;" marker-start="url(#ZERO_OR_MORE_START)" marker-end="url(#ONLY_ONE_END)" d="M81.078125,110L81.078125,118.33333333333333C81.078125,126.66666666666667,81.078125,143.33333333333334,85.4640899122807,160C89.85005482456141,176.66666666666666,98.62198464912281,193.33333333333334,103.0079495614035,201.66666666666666L107.3939144736842,210" class="er relationshipLine"/><path style="stroke: gray; fill: none;" marker-start="url(#ZERO_OR_MORE_START)" marker-end="url(#ONLY_ONE_END)" d="M358.99588815789474,88L365.31167763157896,100C371.6274671052632,112,384.2590460526316,136,390.57483552631584,158.16666666666666C396.890625,180.33333333333334,396.890625,200.66666666666666,396.890625,210.83333333333334L396.890625,221" class="er relationshipLine"/><path style="stroke: gray; fill: none;" marker-start="url(#ZERO_OR_MORE_START)" marker-end="url(#ONLY_ONE_END)" d="M320.1928453947368,88L306.26356907894734,100C292.33429276315786,112,264.47574013157896,136,241.28865131578948,156.33333333333334C218.1015625,176.66666666666666,199.5859375,193.33333333333334,190.328125,201.66666666666666L181.0703125,210" class="er relationshipLine"/><g transform="translate(63.47265625,210 )" id="entity-habits-45ad14bf-43aa-4d39-bf21-ee59d68f0aae"><rect height="90" width="135.2109375" y="0" x="0" class="er entityBox"/><text style="dominant-baseline: middle; text-anchor: middle; font-size: 12px;" transform="translate(67.60546875,12)" y="0" x="0" id="text-entity-habits-45ad14bf-43aa-4d39-bf21-ee59d68f0aae" class="er entityLabel">habits</text><rect height="22" width="53.6640625" y="24" x="0" class="er attributeBoxOdd"/><text style="dominant-baseline: middle; font-size: 10.2px;" transform="translate(5,35)" y="0" x="0" id="text-entity-habits-45ad14bf-43aa-4d39-bf21-ee59d68f0aae-attr-1-type" class="er entityLabel">String</text><rect height="22" width="59.984375" y="24" x="53.6640625" class="er attributeBoxOdd"/><text style="dominant-baseline: middle; font-size: 10.2px;" transform="translate(58.6640625,35)" y="0" x="0" id="text-entity-habits-45ad14bf-43aa-4d39-bf21-ee59d68f0aae-attr-1-name" class="er entityLabel">id</text><rect height="22" width="21.5625" y="24" x="113.6484375" class="er attributeBoxOdd"/><text style="dominant-baseline: middle; font-size: 10.2px;" transform="translate(118.6484375,35)" y="0" x="0" id="text-entity-habits-45ad14bf-43aa-4d39-bf21-ee59d68f0aae-attr-1-key" class="er entityLabel">PK</text><rect height="22" width="53.6640625" y="46" x="0" class="er attributeBoxEven"/><text style="dominant-baseline: middle; font-size: 10.2px;" transform="translate(5,57)" y="0" x="0" id="text-entity-habits-45ad14bf-43aa-4d39-bf21-ee59d68f0aae-attr-2-type" class="er entityLabel">String</text><rect height="22" width="59.984375" y="46" x="53.6640625" class="er attributeBoxEven"/><text style="dominant-baseline: middle; font-size: 10.2px;" transform="translate(58.6640625,57)" y="0" x="0" id="text-entity-habits-45ad14bf-43aa-4d39-bf21-ee59d68f0aae-attr-2-name" class="er entityLabel">title</text><rect height="22" width="21.5625" y="46" x="113.6484375" class="er attributeBoxEven"/><text style="dominant-baseline: middle; font-size: 10.2px;" transform="translate(118.6484375,57)" y="0" x="0" id="text-entity-habits-45ad14bf-43aa-4d39-bf21-ee59d68f0aae-attr-2-key" class="er entityLabel"/><rect height="22" width="53.6640625" y="68" x="0" class="er attributeBoxOdd"/><text style="dominant-baseline: middle; font-size: 10.2px;" transform="translate(5,79)" y="0" x="0" id="text-entity-habits-45ad14bf-43aa-4d39-bf21-ee59d68f0aae-attr-3-type" class="er entityLabel">DateTime</text><rect height="22" width="59.984375" y="68" x="53.6640625" class="er attributeBoxOdd"/><text style="dominant-baseline: middle; font-size: 10.2px;" transform="translate(58.6640625,79)" y="0" x="0" id="text-entity-habits-45ad14bf-43aa-4d39-bf21-ee59d68f0aae-attr-3-name" class="er entityLabel">created_at</text><rect height="22" width="21.5625" y="68" x="113.6484375" class="er attributeBoxOdd"/><text style="dominant-baseline: middle; font-size: 10.2px;" transform="translate(118.6484375,79)" y="0" x="0" id="text-entity-habits-45ad14bf-43aa-4d39-bf21-ee59d68f0aae-attr-3-key" class="er entityLabel"/></g><g transform="translate(20,20 )" id="entity-habitweekdays-399b20ad-9969-45a5-b40b-1d7c0e788903"><rect height="90" width="122.15625" y="0" x="0" class="er entityBox"/><text style="dominant-baseline: middle; text-anchor: middle; font-size: 12px;" transform="translate(61.078125,12)" y="0" x="0" id="text-entity-habitweekdays-399b20ad-9969-45a5-b40b-1d7c0e788903" class="er entityLabel">habit_week_days</text><rect height="22" width="39.450520833333336" y="24" x="0" class="er attributeBoxOdd"/><text style="dominant-baseline: middle; font-size: 10.2px;" transform="translate(5,35)" y="0" x="0" id="text-entity-habitweekdays-399b20ad-9969-45a5-b40b-1d7c0e788903-attr-1-type" class="er entityLabel">String</text><rect height="22" width="58.216145833333336" y="24" x="39.450520833333336" class="er attributeBoxOdd"/><text style="dominant-baseline: middle; font-size: 10.2px;" transform="translate(44.450520833333336,35)" y="0" x="0" id="text-entity-habitweekdays-399b20ad-9969-45a5-b40b-1d7c0e788903-attr-1-name" class="er entityLabel">id</text><rect height="22" width="24.489583333333332" y="24" x="97.66666666666667" class="er attributeBoxOdd"/><text style="dominant-baseline: middle; font-size: 10.2px;" transform="translate(102.66666666666667,35)" y="0" x="0" id="text-entity-habitweekdays-399b20ad-9969-45a5-b40b-1d7c0e788903-attr-1-key" class="er entityLabel">PK</text><rect height="22" width="39.450520833333336" y="46" x="0" class="er attributeBoxEven"/><text style="dominant-baseline: middle; font-size: 10.2px;" transform="translate(5,57)" y="0" x="0" id="text-entity-habitweekdays-399b20ad-9969-45a5-b40b-1d7c0e788903-attr-2-type" class="er entityLabel">Int</text><rect height="22" width="58.216145833333336" y="46" x="39.450520833333336" class="er attributeBoxEven"/><text style="dominant-baseline: middle; font-size: 10.2px;" transform="translate(44.450520833333336,57)" y="0" x="0" id="text-entity-habitweekdays-399b20ad-9969-45a5-b40b-1d7c0e788903-attr-2-name" class="er entityLabel">week_day</text><rect height="22" width="24.489583333333332" y="46" x="97.66666666666667" class="er attributeBoxEven"/><text style="dominant-baseline: middle; font-size: 10.2px;" transform="translate(102.66666666666667,57)" y="0" x="0" id="text-entity-habitweekdays-399b20ad-9969-45a5-b40b-1d7c0e788903-attr-2-key" class="er entityLabel"/><rect height="22" width="39.450520833333336" y="68" x="0" class="er attributeBoxOdd"/><text style="dominant-baseline: middle; font-size: 10.2px;" transform="translate(5,79)" y="0" x="0" id="text-entity-habitweekdays-399b20ad-9969-45a5-b40b-1d7c0e788903-attr-3-type" class="er entityLabel">String</text><rect height="22" width="58.216145833333336" y="68" x="39.450520833333336" class="er attributeBoxOdd"/><text style="dominant-baseline: middle; font-size: 10.2px;" transform="translate(44.450520833333336,79)" y="0" x="0" id="text-entity-habitweekdays-399b20ad-9969-45a5-b40b-1d7c0e788903-attr-3-name" class="er entityLabel">habitId</text><rect height="22" width="24.489583333333332" y="68" x="97.66666666666667" class="er attributeBoxOdd"/><text style="dominant-baseline: middle; font-size: 10.2px;" transform="translate(102.66666666666667,79)" y="0" x="0" id="text-entity-habitweekdays-399b20ad-9969-45a5-b40b-1d7c0e788903-attr-3-key" class="er entityLabel"/></g><g transform="translate(343.94921875,221 )" id="entity-days-f5764da8-cb1e-4361-904b-487d4e33a7c8"><rect height="68" width="105.8828125" y="0" x="0" class="er entityBox"/><text style="dominant-baseline: middle; text-anchor: middle; font-size: 12px;" transform="translate(52.94140625,12)" y="0" x="0" id="text-entity-days-f5764da8-cb1e-4361-904b-487d4e33a7c8" class="er entityLabel">days</text><rect height="22" width="53.6640625" y="24" x="0" class="er attributeBoxOdd"/><text style="dominant-baseline: middle; font-size: 10.2px;" transform="translate(5,35)" y="0" x="0" id="text-entity-days-f5764da8-cb1e-4361-904b-487d4e33a7c8-attr-1-type" class="er entityLabel">String</text><rect height="22" width="30.65625" y="24" x="53.6640625" class="er attributeBoxOdd"/><text style="dominant-baseline: middle; font-size: 10.2px;" transform="translate(58.6640625,35)" y="0" x="0" id="text-entity-days-f5764da8-cb1e-4361-904b-487d4e33a7c8-attr-1-name" class="er entityLabel">id</text><rect height="22" width="21.5625" y="24" x="84.3203125" class="er attributeBoxOdd"/><text style="dominant-baseline: middle; font-size: 10.2px;" transform="translate(89.3203125,35)" y="0" x="0" id="text-entity-days-f5764da8-cb1e-4361-904b-487d4e33a7c8-attr-1-key" class="er entityLabel">PK</text><rect height="22" width="53.6640625" y="46" x="0" class="er attributeBoxEven"/><text style="dominant-baseline: middle; font-size: 10.2px;" transform="translate(5,57)" y="0" x="0" id="text-entity-days-f5764da8-cb1e-4361-904b-487d4e33a7c8-attr-2-type" class="er entityLabel">DateTime</text><rect height="22" width="30.65625" y="46" x="53.6640625" class="er attributeBoxEven"/><text style="dominant-baseline: middle; font-size: 10.2px;" transform="translate(58.6640625,57)" y="0" x="0" id="text-entity-days-f5764da8-cb1e-4361-904b-487d4e33a7c8-attr-2-name" class="er entityLabel">date</text><rect height="22" width="21.5625" y="46" x="84.3203125" class="er attributeBoxEven"/><text style="dominant-baseline: middle; font-size: 10.2px;" transform="translate(89.3203125,57)" y="0" x="0" id="text-entity-days-f5764da8-cb1e-4361-904b-487d4e33a7c8-attr-2-key" class="er entityLabel"/></g><g transform="translate(296.890625,42 )" id="entity-dayhabits-84b4689a-dff6-4a3e-875c-087e1bfdb4b6"><rect height="46" width="100" y="0" x="0" class="er entityBox"/><text style="dominant-baseline: middle; text-anchor: middle; font-size: 12px;" transform="translate(50,12)" y="0" x="0" id="text-entity-dayhabits-84b4689a-dff6-4a3e-875c-087e1bfdb4b6" class="er entityLabel">day_habits</text><rect height="22" width="44.296875" y="24" x="0" class="er attributeBoxOdd"/><text style="dominant-baseline: middle; font-size: 10.2px;" transform="translate(5,35)" y="0" x="0" id="text-entity-dayhabits-84b4689a-dff6-4a3e-875c-087e1bfdb4b6-attr-1-type" class="er entityLabel">String</text><rect height="22" width="26.3671875" y="24" x="44.296875" class="er attributeBoxOdd"/><text style="dominant-baseline: middle; font-size: 10.2px;" transform="translate(49.296875,35)" y="0" x="0" id="text-entity-dayhabits-84b4689a-dff6-4a3e-875c-087e1bfdb4b6-attr-1-name" class="er entityLabel">id</text><rect height="22" width="29.3359375" y="24" x="70.6640625" class="er attributeBoxOdd"/><text style="dominant-baseline: middle; font-size: 10.2px;" transform="translate(75.6640625,35)" y="0" x="0" id="text-entity-dayhabits-84b4689a-dff6-4a3e-875c-087e1bfdb4b6-attr-1-key" class="er entityLabel">PK</text></g><rect height="14" width="27.7265625" y="155.108642578125" x="72.1788101196289" class="er relationshipLabelBox"/><text style="text-anchor: middle; dominant-baseline: middle; font-size: 12px;" y="162.108642578125" x="86.0420913696289" id="rel1" class="er relationshipLabel">habit</text><rect height="14" width="18.9140625" y="144.62586975097656" x="379.095947265625" class="er relationshipLabelBox"/><text style="text-anchor: middle; dominant-baseline: middle; font-size: 12px;" y="151.62586975097656" x="388.552978515625" id="rel2" class="er relationshipLabel">day</text><rect height="14" width="27.7265625" y="141.52513122558594" x="236.35122680664062" class="er relationshipLabelBox"/><text style="text-anchor: middle; dominant-baseline: middle; font-size: 12px;" y="148.52513122558594" x="250.21450805664062" id="rel3" class="er relationshipLabel">habit</text></svg>